# xmcd
#
# Track frame offsets: 
#        150
#        19337
#        37877
#        53473
#        67100
#        96361
#        117243
#        132581
#        155680
#        178720
#
# Disc length: 2529 seconds
#
# Revision: 2
# Processed by: cddbd v1.5.2PL0 Copyright (c) Steve Scherf et al.
# Submitted via: ExactAudioCopy v0.99pb5
#
DISCID=8909df0a
DTITLE=Arve Henriksen - Chiaroscuro
DYEAR=2004
DGENRE=Electronic
TTITLE0=Opening Image
TTITLE1=Bird's-Eye-View
TTITLE2=Chiaro
TTITLE3=Holography
TTITLE4=Blue Silk
TTITLE5=Parallel Action
TTITLE6=Circled Take
TTITLE7=Scuro
TTITLE8=Time Lapse
TTITLE9=Ending Image
EXTD=YEAR: 2004
EXTT0=
EXTT1=
EXTT2=
EXTT3=
EXTT4=
EXTT5=
EXTT6=
EXTT7=
EXTT8=
EXTT9=
PLAYORDER=
